<svg xmlns="http://www.w3.org/2000/svg" viewBox="0 0 760 190" role="img" aria-labelledby="title desc">
  <title id="title">GoalBuddy logo</title>
  <desc id="desc">GoalBuddy wordmark with lavender cloud mark.</desc>
  <defs>
    <radialGradient id="logoMarkGrad" cx="34%" cy="18%" r="92%">
      <stop offset="0" stop-color="#f8f2ff"/>
      <stop offset="0.46" stop-color="#b6a9ff"/>
      <stop offset="1" stop-color="#5361ff"/>
    </radialGradient>
    <filter id="logoShadow" x="-20%" y="-25%" width="140%" height="160%">
      <feDropShadow dx="0" dy="12" stdDeviation="10" flood-color="#4d48b8" flood-opacity=".24"/>
    </filter>
  </defs>
  <g filter="url(#logoShadow)">
    <path d="M72 141c-30 0-54-24-54-54 0-26 18-48 43-53C65 15 82 0 103 0c18 0 34 10 42 24 12-8 27-13 43-13 36 0 66 26 72 61 22 11 37 33 37 59 0 36-30 66-66 66H93c-8 0-15-2-21-6z" transform="translate(0 4) scale(.82)" fill="url(#logoMarkGrad)"/>
    <ellipse cx="82" cy="81" rx="8" ry="12" fill="#061238"/>
    <ellipse cx="132" cy="81" rx="8" ry="12" fill="#061238"/>
    <path d="M99 101c8 9 18 9 27 0" fill="none" stroke="#061238" stroke-width="7" stroke-linecap="round"/>
  </g>
  <text x="230" y="116" fill="#071236" font-family="Geist, Avenir Next, Arial, sans-serif" font-size="82" font-weight="800" letter-spacing="-1">GoalBuddy</text>
</svg>
